<svg xmlns="http://www.w3.org/2000/svg" xmlns:xlink="http://www.w3.org/1999/xlink" width="163.68" height="64.112" viewBox="0 0 163.68 64.112"><defs><style>.a{fill:url(#a);}.b{fill:#ececec;}</style><linearGradient id="a" x1="0.101" y1="0.161" x2="0.289" y2="-0.046" gradientUnits="objectBoundingBox"><stop offset="0" stop-color="#01eeb5"/><stop offset="1" stop-color="#159bec"/></linearGradient></defs><g transform="translate(0 -0.001)"><g transform="translate(0 0.001)"><path class="a" d="M23.748,0h-.141a27.53,27.53,0,0,0-8.067,1.25l-.708.223v4.3a23.931,23.931,0,0,0,0,44.268v4.367l.011,0a10.189,10.189,0,0,0,2.093,6.51,9.154,9.154,0,0,0,16.1-5.961q0-.3-.02-.6a27.557,27.557,0,0,0,7.466-3.867A28.382,28.382,0,0,0,51.905,27.939,28.383,28.383,0,0,0,40.481,5.386,28.353,28.353,0,0,0,23.748,0Zm.133,2.03a26.406,26.406,0,0,1,15.4,4.986,26.45,26.45,0,0,1,10.6,20.923,26.45,26.45,0,0,1-10.6,20.924,25.36,25.36,0,0,1-6.637,3.475,9.281,9.281,0,0,0-.785-1.854A23.931,23.931,0,0,0,16.855,5.045V2.982a25.534,25.534,0,0,1,6.765-.951ZM23.93,6a21.909,21.909,0,0,1,6.694,42.77q-.12-.131-.245-.257a9.218,9.218,0,0,0-6.43-2.7H23.94a17.958,17.958,0,0,1-7.085-1.47V11.507a17.987,17.987,0,0,1,7.075-1.477,18.18,18.18,0,0,1,12.7,5.288,17.881,17.881,0,0,1,5.208,12.617v.006a14.315,14.315,0,0,1-4.07,9.9,14.006,14.006,0,0,1-9.809,4.009h-.329a4.387,4.387,0,1,0-3.692,2.022h4.009a15.961,15.961,0,0,0,11.247-4.6,16.214,16.214,0,0,0,4.667-11.335,19.877,19.877,0,0,0-5.8-14.051A20.135,20.135,0,0,0,23.931,8.007,19.931,19.931,0,0,0,16.855,9.32V7.172A21.9,21.9,0,0,1,23.93,6Zm-9.1,1.978v2.241a19.838,19.838,0,0,0-5,3.625,19.907,19.907,0,0,0,.016,28.177,19.815,19.815,0,0,0,4.984,3.606v2.211a21.909,21.909,0,0,1,0-39.861Zm0,4.551V43.316a17.628,17.628,0,0,1-3.556-2.729,17.885,17.885,0,0,1-.014-25.315A17.649,17.649,0,0,1,14.832,12.527ZM23.94,37.145a2.353,2.353,0,1,1,0,4.706h-.006a2.353,2.353,0,1,1,0-4.706Zm-7.085,9.377a19.9,19.9,0,0,0,7.087,1.306,7.284,7.284,0,0,1,4.369,1.545,21.91,21.91,0,0,1-11.456-.732Zm0,4.245a23.927,23.927,0,0,0,13.011.322,7.374,7.374,0,0,1,.846,1.844A26.408,26.408,0,0,1,16.855,52.9Zm14.16,4.191h0A7.131,7.131,0,0,1,18.471,59.6a7.817,7.817,0,0,1-1.57-4.586A28.371,28.371,0,0,0,31.015,54.958Z" transform="translate(0.001 -0.001)"/></g><g transform="translate(56.478 7.97)"><path class="b" d="M124133.563-36908.441a22.614,22.614,0,0,1-1.383,8.074,18.233,18.233,0,0,1-3.812,6.309,17.31,17.31,0,0,1-5.859,4.09,18.7,18.7,0,0,1-7.414,1.438,18.673,18.673,0,0,1-7.414-1.437,17.31,17.31,0,0,1-5.859-4.09,18.988,18.988,0,0,1-3.875-6.309,23.514,23.514,0,0,1-1.32-8.074,23.53,23.53,0,0,1,1.32-8.074,18.97,18.97,0,0,1,3.875-6.3,17.32,17.32,0,0,1,5.859-4.094,18.81,18.81,0,0,1,7.414-1.437,18.838,18.838,0,0,1,7.414,1.438,17.32,17.32,0,0,1,5.859,4.094,18.216,18.216,0,0,1,3.813,6.3A22.629,22.629,0,0,1,124133.563-36908.441Zm-2.32,0a19.642,19.642,0,0,0-2.1-9.289,15.229,15.229,0,0,0-5.7-6.2,15.651,15.651,0,0,0-8.352-2.211,15.825,15.825,0,0,0-8.352,2.211,15.589,15.589,0,0,0-5.758,6.2,20.107,20.107,0,0,0-2.039,9.289,20.135,20.135,0,0,0,2.039,9.293,15.589,15.589,0,0,0,5.758,6.2,15.805,15.805,0,0,0,8.352,2.211,15.651,15.651,0,0,0,8.352-2.211,15.229,15.229,0,0,0,5.7-6.2A19.669,19.669,0,0,0,124131.242-36908.441Z" transform="translate(-124096.602 36928.391)"/><path class="b" d="M124114.586-36929.078a18.778,18.778,0,0,0-7.43,1.441,17.157,17.157,0,0,0-5.867,4.1,18.95,18.95,0,0,0-3.891,6.32,23.591,23.591,0,0,0-1.32,8.082,23.6,23.6,0,0,0,1.32,8.09,18.893,18.893,0,0,0,3.891,6.316,17.167,17.167,0,0,0,5.867,4.1,18.846,18.846,0,0,0,7.43,1.438,18.807,18.807,0,0,0,7.422-1.437,17.38,17.38,0,0,0,5.883-4.1,18.114,18.114,0,0,0,3.813-6.316,22.7,22.7,0,0,0,1.391-8.09,22.688,22.688,0,0,0-1.391-8.082,18.166,18.166,0,0,0-3.812-6.32,17.369,17.369,0,0,0-5.883-4.1A18.74,18.74,0,0,0,124114.586-36929.078Zm0,.074a18.529,18.529,0,0,1,7.391,1.434,17.084,17.084,0,0,1,5.859,4.082,18.249,18.249,0,0,1,3.8,6.289,22.594,22.594,0,0,1,1.383,8.063,22.57,22.57,0,0,1-1.383,8.066,18.23,18.23,0,0,1-3.8,6.293,17.138,17.138,0,0,1-5.859,4.082,18.6,18.6,0,0,1-7.391,1.441,18.693,18.693,0,0,1-7.4-1.441,17.033,17.033,0,0,1-5.852-4.082,18.842,18.842,0,0,1-3.859-6.293,23.282,23.282,0,0,1-1.336-8.066,23.307,23.307,0,0,1,1.336-8.062,18.863,18.863,0,0,1,3.859-6.289,16.98,16.98,0,0,1,5.852-4.082A18.621,18.621,0,0,1,124114.586-36929Zm0,2.141a15.827,15.827,0,0,0-8.367,2.215,15.643,15.643,0,0,0-5.773,6.211,20.083,20.083,0,0,0-2.047,9.3,20.11,20.11,0,0,0,2.047,9.313,15.7,15.7,0,0,0,5.773,6.211,15.827,15.827,0,0,0,8.367,2.215,15.635,15.635,0,0,0,8.367-2.215,15.2,15.2,0,0,0,5.711-6.211,19.74,19.74,0,0,0,2.109-9.312,19.714,19.714,0,0,0-2.109-9.3,15.177,15.177,0,0,0-5.711-6.211A15.6,15.6,0,0,0,124114.586-36926.863Zm0,.066a15.549,15.549,0,0,1,8.328,2.211,15.105,15.105,0,0,1,5.688,6.176h0a19.587,19.587,0,0,1,2.094,9.273,19.608,19.608,0,0,1-2.094,9.281h0a15.14,15.14,0,0,1-5.687,6.18,15.547,15.547,0,0,1-8.328,2.207,15.747,15.747,0,0,1-8.336-2.207,15.517,15.517,0,0,1-5.734-6.18,20.075,20.075,0,0,1-2.047-9.281,20.053,20.053,0,0,1,2.047-9.273,15.481,15.481,0,0,1,5.734-6.176A15.75,15.75,0,0,1,124114.586-36926.8Z" transform="translate(-124096.078 36929.078)"/><g transform="translate(45.216 0.553)"><path class="b" d="M124999.383-36917.5a15.144,15.144,0,0,1,7.18,1.605,13.43,13.43,0,0,1,4.984,4.313,18.592,18.592,0,0,1,2.93,6.2,27.724,27.724,0,0,1,.938,7.242,26.763,26.763,0,0,1-1.711,9.734,15.492,15.492,0,0,1-5.2,7.027,15.07,15.07,0,0,1-9.125,2.6H124985a1.062,1.062,0,0,1-.773-.332,1.049,1.049,0,0,1-.336-.773v-36.5a1.043,1.043,0,0,1,.336-.773,1.047,1.047,0,0,1,.773-.332Zm-.555,36.5a13.537,13.537,0,0,0,8.18-2.266,13.221,13.221,0,0,0,4.594-6.2,24.32,24.32,0,0,0,1.492-8.684,24.5,24.5,0,0,0-.836-6.469,15.73,15.73,0,0,0-2.484-5.477,12.023,12.023,0,0,0-4.422-3.816,14.262,14.262,0,0,0-6.523-1.379h-12.945l.328-.445v35.23l-.328-.5Z" transform="translate(-124983.867 36917.539)"/><path class="b" d="M124984.555-36918.223a1.115,1.115,0,0,0-.8.344,1.127,1.127,0,0,0-.336.8v36.5a1.127,1.127,0,0,0,.336.8,1.1,1.1,0,0,0,.8.34h14.383a15.014,15.014,0,0,0,9.133-2.609,15.42,15.42,0,0,0,5.219-7.039,26.827,26.827,0,0,0,1.719-9.746,27.838,27.838,0,0,0-.945-7.254,18.4,18.4,0,0,0-2.937-6.207,13.388,13.388,0,0,0-4.992-4.32,15.185,15.185,0,0,0-7.2-1.609Zm0,.07h14.383a15.226,15.226,0,0,1,7.172,1.6,13.36,13.36,0,0,1,4.953,4.309,18.2,18.2,0,0,1,2.93,6.184,27.331,27.331,0,0,1,.938,7.23,26.713,26.713,0,0,1-1.7,9.723,15.366,15.366,0,0,1-5.187,7.008,15.023,15.023,0,0,1-9.1,2.6h-14.383a1.02,1.02,0,0,1-.75-.328,1,1,0,0,1-.32-.746v-36.5a1.006,1.006,0,0,1,.32-.75A1.016,1.016,0,0,1,124984.555-36918.152Zm1.25,1.629-.437.586h.367v34.219h-.359l.43.645v-.574h12.57a13.613,13.613,0,0,0,8.211-2.277,13.268,13.268,0,0,0,4.6-6.207,24.236,24.236,0,0,0,1.492-8.7,24.9,24.9,0,0,0-.828-6.477,15.944,15.944,0,0,0-2.492-5.488,11.985,11.985,0,0,0-4.437-3.824,14.24,14.24,0,0,0-6.547-1.387h-12.57Zm-.07.215v.3h-.227Zm.07.371h12.57a14.228,14.228,0,0,1,6.516,1.375,11.907,11.907,0,0,1,4.414,3.809,15.926,15.926,0,0,1,2.484,5.465,25.07,25.07,0,0,1,.828,6.457,24.07,24.07,0,0,1-1.5,8.672,13.172,13.172,0,0,1-4.57,6.18,13.522,13.522,0,0,1-8.172,2.262h-12.57Zm-.3,34.289h.234v.344Z" transform="translate(-124983.414 36918.223)"/></g><g transform="translate(81.465)"><path class="b" d="M125709.18-36888.531a16.453,16.453,0,0,1-7.414-1.437,22.274,22.274,0,0,1-5.977-4.367,1.9,1.9,0,0,1-.211-.277,1.175,1.175,0,0,1-.109-.551,1.149,1.149,0,0,1,.375-.832,1.138,1.138,0,0,1,.836-.445,1.3,1.3,0,0,1,.945.5,14.853,14.853,0,0,0,5.141,3.871,15.014,15.014,0,0,0,6.2,1.328,13.44,13.44,0,0,0,5.023-.887,8.412,8.412,0,0,0,3.484-2.6,6.486,6.486,0,0,0,1.281-3.98,6.856,6.856,0,0,0-1.555-4.535,11.45,11.45,0,0,0-3.867-2.82q-2.332-1.107-4.93-2.047c-1.359-.52-2.7-1.051-4.031-1.605a17.643,17.643,0,0,1-3.594-1.988,8.938,8.938,0,0,1-2.539-2.988,9.633,9.633,0,0,1-.945-4.48,8.553,8.553,0,0,1,1.438-4.867,10.039,10.039,0,0,1,4.2-3.484,14.955,14.955,0,0,1,6.523-1.328,16.829,16.829,0,0,1,6.141,1.16,10.172,10.172,0,0,1,4.7,3.375,2.4,2.4,0,0,1,.547,1.16,1.06,1.06,0,0,1-.437.777,1.224,1.224,0,0,1-.891.387.874.874,0,0,1-.711-.332,9.529,9.529,0,0,0-2.437-2.27,10.016,10.016,0,0,0-3.148-1.492,12.651,12.651,0,0,0-3.766-.551,13.159,13.159,0,0,0-4.922.883,8.383,8.383,0,0,0-3.531,2.543,6.02,6.02,0,0,0-1.336,3.984,6.18,6.18,0,0,0,1.445,4.2,12.656,12.656,0,0,0,3.75,2.711q2.273,1.049,4.648,1.938,2.109.715,4.148,1.6a15.407,15.407,0,0,1,3.766,2.1,9.172,9.172,0,0,1,2.7,3.211,10.581,10.581,0,0,1,1,4.867,8.059,8.059,0,0,1-1.5,4.7,10.291,10.291,0,0,1-4.086,3.484A14.657,14.657,0,0,1,125709.18-36888.531Z" transform="translate(-125695.438 36928.391)"/><path class="b" d="M125708.813-36929.078a14.946,14.946,0,0,0-6.539,1.332,10.18,10.18,0,0,0-4.219,3.492,8.631,8.631,0,0,0-1.445,4.887,9.689,9.689,0,0,0,.945,4.5v.008a9.04,9.04,0,0,0,2.547,3,18.358,18.358,0,0,0,3.6,2c1.336.551,2.68,1.086,4.047,1.6,1.727.625,3.375,1.309,4.914,2.043a11.383,11.383,0,0,1,3.859,2.816,6.859,6.859,0,0,1,1.547,4.508,6.452,6.452,0,0,1-1.273,3.957,8.319,8.319,0,0,1-3.469,2.594,13.448,13.448,0,0,1-5.016.883,15,15,0,0,1-6.18-1.328,14.936,14.936,0,0,1-5.133-3.859,1.307,1.307,0,0,0-.969-.512,1.145,1.145,0,0,0-.852.457,1.182,1.182,0,0,0-.4.848,1.361,1.361,0,0,0,.109.57v.008a2.713,2.713,0,0,0,.227.281,22.221,22.221,0,0,0,5.984,4.375,16.491,16.491,0,0,0,7.43,1.438,14.591,14.591,0,0,0,6.375-1.383,10.365,10.365,0,0,0,4.1-3.5,8.121,8.121,0,0,0,1.508-4.723,10.529,10.529,0,0,0-1.008-4.879,9.09,9.09,0,0,0-2.719-3.219,15.567,15.567,0,0,0-3.766-2.109c-1.359-.586-2.75-1.125-4.148-1.605h0c-1.586-.59-3.125-1.23-4.648-1.93a12.639,12.639,0,0,1-3.742-2.707,6.141,6.141,0,0,1-1.43-4.18,5.977,5.977,0,0,1,1.32-3.957,8.353,8.353,0,0,1,3.531-2.535,12.991,12.991,0,0,1,4.906-.879,12.51,12.51,0,0,1,3.75.551,9.967,9.967,0,0,1,3.141,1.488,9.433,9.433,0,0,1,2.422,2.262.958.958,0,0,0,.75.34,1.249,1.249,0,0,0,.906-.395,1.118,1.118,0,0,0,.461-.8,2.436,2.436,0,0,0-.562-1.18,10.211,10.211,0,0,0-4.719-3.387A16.874,16.874,0,0,0,125708.813-36929.078Zm0,.074a16.663,16.663,0,0,1,6.125,1.156,10.1,10.1,0,0,1,4.688,3.363,2.4,2.4,0,0,1,.547,1.137,1.067,1.067,0,0,1-.43.75,1.189,1.189,0,0,1-.859.379.856.856,0,0,1-.7-.32,9.451,9.451,0,0,0-2.445-2.273,10.073,10.073,0,0,0-3.156-1.5h0a12.651,12.651,0,0,0-3.766-.551,13.136,13.136,0,0,0-4.937.887,8.449,8.449,0,0,0-3.555,2.555,6.1,6.1,0,0,0-1.336,4,6.253,6.253,0,0,0,1.445,4.23,12.854,12.854,0,0,0,3.781,2.715q2.262,1.055,4.641,1.941c1.4.477,2.789,1.012,4.148,1.6a15.431,15.431,0,0,1,3.75,2.1h0a9.085,9.085,0,0,1,2.7,3.191,10.512,10.512,0,0,1,1,4.852,8.051,8.051,0,0,1-1.492,4.684,10.312,10.312,0,0,1-4.078,3.477,14.615,14.615,0,0,1-6.344,1.379,16.413,16.413,0,0,1-7.4-1.441,22.1,22.1,0,0,1-5.969-4.355c-.062-.074-.133-.164-.211-.273a1.2,1.2,0,0,1-.1-.539,1.124,1.124,0,0,1,.367-.8h0a1.09,1.09,0,0,1,.8-.434,1.239,1.239,0,0,1,.922.488,14.9,14.9,0,0,0,5.148,3.879,15.144,15.144,0,0,0,6.211,1.332,13.437,13.437,0,0,0,5.039-.887,8.494,8.494,0,0,0,3.5-2.613,6.5,6.5,0,0,0,1.281-4,6.9,6.9,0,0,0-1.555-4.559,11.534,11.534,0,0,0-3.883-2.828c-1.547-.734-3.2-1.418-4.93-2.047h0q-2.039-.768-4.023-1.6a17.654,17.654,0,0,1-3.594-1.992,8.9,8.9,0,0,1-2.531-2.969,9.682,9.682,0,0,1-.937-4.469,8.588,8.588,0,0,1,1.43-4.84,10.126,10.126,0,0,1,4.2-3.477A14.885,14.885,0,0,1,125708.813-36929Z" transform="translate(-125694.781 36929.078)"/></g></g><g transform="translate(56.475 48.933)"><g transform="translate(0 2.038)"><path class="b" d="M25448-7810.584a3.457,3.457,0,0,1-1.566-.3,4.677,4.677,0,0,1-1.266-.925.4.4,0,0,1-.047-.058.265.265,0,0,1-.023-.118.246.246,0,0,1,.082-.175.234.234,0,0,1,.176-.094.266.266,0,0,1,.2.105,3.2,3.2,0,0,0,1.086.82,3.206,3.206,0,0,0,1.313.281,2.853,2.853,0,0,0,1.066-.187,1.785,1.785,0,0,0,.738-.55,1.375,1.375,0,0,0,.27-.843,1.455,1.455,0,0,0-.328-.96,2.423,2.423,0,0,0-.82-.6q-.492-.234-1.043-.433-.428-.164-.855-.34a3.976,3.976,0,0,1-.762-.421,1.9,1.9,0,0,1-.535-.632,2.053,2.053,0,0,1-.2-.949,1.814,1.814,0,0,1,.3-1.03,2.138,2.138,0,0,1,.891-.738,3.136,3.136,0,0,1,1.379-.281,3.56,3.56,0,0,1,1.3.246,2.149,2.149,0,0,1,1,.714.51.51,0,0,1,.117.247.226.226,0,0,1-.094.164.258.258,0,0,1-.187.082.189.189,0,0,1-.152-.07,2.009,2.009,0,0,0-.516-.48,2.1,2.1,0,0,0-.668-.316,2.657,2.657,0,0,0-.8-.118,2.81,2.81,0,0,0-1.043.188,1.8,1.8,0,0,0-.746.539,1.279,1.279,0,0,0-.281.843,1.291,1.291,0,0,0,.3.89,2.627,2.627,0,0,0,.8.574c.316.148.645.285.98.41q.445.152.879.34a3.279,3.279,0,0,1,.8.445,1.931,1.931,0,0,1,.574.679,2.239,2.239,0,0,1,.211,1.03,1.713,1.713,0,0,1-.316,1,2.188,2.188,0,0,1-.867.737A3.09,3.09,0,0,1,25448-7810.584Z" transform="translate(-25445.074 7819.041)"/><path class="b" d="M25447.607-7819.521a3.189,3.189,0,0,0-1.393.284,2.183,2.183,0,0,0-.9.747,1.845,1.845,0,0,0-.307,1.044,2.085,2.085,0,0,0,.2.961h0a1.911,1.911,0,0,0,.545.641,3.793,3.793,0,0,0,.766.424q.422.176.855.34h0q.551.2,1.039.432a2.408,2.408,0,0,1,.813.591,1.449,1.449,0,0,1,.322.945,1.341,1.341,0,0,1-.268.827,1.745,1.745,0,0,1-.725.542h0a2.813,2.813,0,0,1-1.057.186,3.17,3.17,0,0,1-1.3-.278h0a3.152,3.152,0,0,1-1.082-.813.292.292,0,0,0-.219-.114.258.258,0,0,0-.193.1.275.275,0,0,0-.088.192.291.291,0,0,0,.025.129v0h0a.468.468,0,0,0,.051.063,4.673,4.673,0,0,0,1.271.93,3.5,3.5,0,0,0,1.58.307h0a3.084,3.084,0,0,0,1.355-.3,2.224,2.224,0,0,0,.879-.746,1.754,1.754,0,0,0,.318-1.01,2.268,2.268,0,0,0-.213-1.042,1.952,1.952,0,0,0-.58-.688,3.3,3.3,0,0,0-.8-.448h0c-.289-.125-.58-.239-.877-.341h0q-.5-.187-.982-.409h0a2.661,2.661,0,0,1-.789-.569,1.288,1.288,0,0,1-.3-.873,1.25,1.25,0,0,1,.275-.827,1.754,1.754,0,0,1,.738-.531,2.756,2.756,0,0,1,1.033-.186,2.636,2.636,0,0,1,.789.116h0a2.081,2.081,0,0,1,.658.313h0a1.986,1.986,0,0,1,.51.474h0a.216.216,0,0,0,.17.08.285.285,0,0,0,.205-.088h0a.255.255,0,0,0,.1-.182.528.528,0,0,0-.123-.261,2.176,2.176,0,0,0-1.008-.723,3.574,3.574,0,0,0-1.311-.248Zm0,.051a3.527,3.527,0,0,1,1.291.244,2.12,2.12,0,0,1,.984.706.512.512,0,0,1,.111.231.2.2,0,0,1-.084.145h0a.229.229,0,0,1-.17.075.161.161,0,0,1-.131-.06h0a2.042,2.042,0,0,0-.52-.484h0a2.114,2.114,0,0,0-.676-.318h0a2.652,2.652,0,0,0-.8-.119,2.818,2.818,0,0,0-1.053.19,1.823,1.823,0,0,0-.76.546,1.3,1.3,0,0,0-.287.859,1.337,1.337,0,0,0,.311.906h0a2.717,2.717,0,0,0,.8.579h0q.48.223.984.411c.3.1.59.214.879.339h0a3.2,3.2,0,0,1,.789.441,1.924,1.924,0,0,1,.568.67,2.211,2.211,0,0,1,.207,1.019,1.679,1.679,0,0,1-.312.981h0a2.166,2.166,0,0,1-.855.729,3.055,3.055,0,0,1-1.334.29h0a3.45,3.45,0,0,1-1.559-.3,4.689,4.689,0,0,1-1.26-.92.294.294,0,0,1-.041-.051h0a.234.234,0,0,1-.02-.105.211.211,0,0,1,.074-.157h0a.2.2,0,0,1,.154-.084.245.245,0,0,1,.182.1,3.164,3.164,0,0,0,1.1.826h0a3.22,3.22,0,0,0,1.32.282,2.858,2.858,0,0,0,1.074-.189h0a1.789,1.789,0,0,0,.75-.558h0a1.4,1.4,0,0,0,.275-.858,1.487,1.487,0,0,0-.336-.977,2.436,2.436,0,0,0-.828-.6c-.328-.157-.678-.3-1.045-.434-.287-.109-.57-.223-.854-.34a3.759,3.759,0,0,1-.754-.419,1.862,1.862,0,0,1-.531-.623,2.027,2.027,0,0,1-.2-.937,1.783,1.783,0,0,1,.3-1.016,2.121,2.121,0,0,1,.881-.729,3.132,3.132,0,0,1,1.369-.278Z" transform="translate(-25444.619 7819.521)"/></g><g transform="translate(6.627 2.038)"><path class="b" d="M25582.949-7814.8a4.742,4.742,0,0,1-.295,1.709,3.843,3.843,0,0,1-.807,1.335,3.64,3.64,0,0,1-1.242.867,3.954,3.954,0,0,1-1.568.3,3.954,3.954,0,0,1-1.568-.3,3.64,3.64,0,0,1-1.242-.867,4,4,0,0,1-.82-1.335,4.964,4.964,0,0,1-.281-1.709,4.969,4.969,0,0,1,.281-1.71,4.005,4.005,0,0,1,.82-1.335,3.624,3.624,0,0,1,1.242-.866,3.954,3.954,0,0,1,1.568-.3,3.954,3.954,0,0,1,1.568.3,3.624,3.624,0,0,1,1.242.866,3.852,3.852,0,0,1,.807,1.335A4.747,4.747,0,0,1,25582.949-7814.8Zm-.492,0a4.154,4.154,0,0,0-.445-1.968,3.229,3.229,0,0,0-1.205-1.312,3.316,3.316,0,0,0-1.77-.468,3.343,3.343,0,0,0-1.768.468,3.3,3.3,0,0,0-1.219,1.312,4.247,4.247,0,0,0-.434,1.968,4.243,4.243,0,0,0,.434,1.967,3.289,3.289,0,0,0,1.219,1.312,3.334,3.334,0,0,0,1.768.469,3.307,3.307,0,0,0,1.77-.469,3.217,3.217,0,0,0,1.205-1.312A4.15,4.15,0,0,0,25582.457-7814.8Z" transform="translate(-25575.102 7819.039)"/><path class="b" d="M25578.6-7819.521a3.978,3.978,0,0,0-1.578.307,3.646,3.646,0,0,0-1.25.873,4.049,4.049,0,0,0-.826,1.344,4.968,4.968,0,0,0-.281,1.718,4.976,4.976,0,0,0,.281,1.719,4.042,4.042,0,0,0,.826,1.343,3.646,3.646,0,0,0,1.25.873,3.977,3.977,0,0,0,1.578.306,3.994,3.994,0,0,0,1.58-.306,3.665,3.665,0,0,0,1.25-.873,3.859,3.859,0,0,0,.813-1.343,4.841,4.841,0,0,0,.295-1.719,4.834,4.834,0,0,0-.295-1.718,3.861,3.861,0,0,0-.812-1.344,3.665,3.665,0,0,0-1.25-.873A3.994,3.994,0,0,0,25578.6-7819.521Zm0,.051a3.931,3.931,0,0,1,1.559.3,3.6,3.6,0,0,1,1.232.86,3.8,3.8,0,0,1,.8,1.326h0a4.729,4.729,0,0,1,.293,1.7,4.737,4.737,0,0,1-.293,1.7,3.8,3.8,0,0,1-.8,1.326,3.592,3.592,0,0,1-1.232.861,3.931,3.931,0,0,1-1.559.3,3.924,3.924,0,0,1-1.559-.3,3.592,3.592,0,0,1-1.232-.861,3.974,3.974,0,0,1-.814-1.326,4.962,4.962,0,0,1-.279-1.7,4.955,4.955,0,0,1,.279-1.7h0a3.984,3.984,0,0,1,.814-1.326,3.6,3.6,0,0,1,1.232-.86A3.924,3.924,0,0,1,25578.6-7819.47Zm0,.417a3.368,3.368,0,0,0-1.781.473,3.317,3.317,0,0,0-1.227,1.321h0a4.268,4.268,0,0,0-.436,1.978,4.273,4.273,0,0,0,.436,1.979h0a3.325,3.325,0,0,0,1.227,1.322,3.367,3.367,0,0,0,1.781.472,3.324,3.324,0,0,0,1.781-.472,3.23,3.23,0,0,0,1.215-1.322,4.181,4.181,0,0,0,.449-1.979,4.177,4.177,0,0,0-.449-1.978h0a3.223,3.223,0,0,0-1.215-1.321A3.329,3.329,0,0,0,25578.6-7819.053Zm0,.051a3.287,3.287,0,0,1,1.756.464,3.2,3.2,0,0,1,1.2,1.3h0a4.145,4.145,0,0,1,.441,1.955,4.148,4.148,0,0,1-.441,1.956,3.2,3.2,0,0,1-1.2,1.3,3.283,3.283,0,0,1-1.756.465,3.315,3.315,0,0,1-1.754-.465,3.27,3.27,0,0,1-1.209-1.3,4.242,4.242,0,0,1-.432-1.956,4.239,4.239,0,0,1,.432-1.955h0a3.27,3.27,0,0,1,1.209-1.3A3.315,3.315,0,0,1,25578.6-7819Z" transform="translate(-25574.66 7819.521)"/></g><g transform="translate(16.201 2.155)"><path class="b" d="M25767.545-7808.987a.225.225,0,0,1,.164.07.225.225,0,0,1,.07.164.236.236,0,0,1-.07.175.249.249,0,0,1-.164.059h-4.3a.235.235,0,0,1-.176-.07.248.248,0,0,1-.059-.163v-7.729a.218.218,0,0,1,.07-.164.238.238,0,0,1,.176-.07.242.242,0,0,1,.176.07.233.233,0,0,1,.07.164v7.705l-.211-.211Z" transform="translate(-25762.99 7816.741)"/><path class="b" d="M25762.834-7817.223a.273.273,0,0,0-.2.079.262.262,0,0,0-.078.182v7.729a.264.264,0,0,0,.066.18h0a.264.264,0,0,0,.193.078h4.3a.284.284,0,0,0,.182-.064h0a.267.267,0,0,0,.076-.193.259.259,0,0,0-.076-.182.261.261,0,0,0-.184-.079h-4.016v-7.468a.251.251,0,0,0-.076-.182.266.266,0,0,0-.2-.079Zm0,.051a.209.209,0,0,1,.156.063.2.2,0,0,1,.064.146v7.468h-.248l.3.3v-.247h4.016a.191.191,0,0,1,.145.063.19.19,0,0,1,.064.146.205.205,0,0,1-.062.156.217.217,0,0,1-.146.052h-4.3a.211.211,0,0,1-.158-.062.22.22,0,0,1-.053-.146v-7.729a.2.2,0,0,1,.064-.146A.213.213,0,0,1,25762.834-7817.171Zm.1,7.729h.125v.125Z" transform="translate(-25762.561 7817.223)"/></g><g transform="translate(22.081 2.155)"><path class="b" d="M25884.227-7816.716a.208.208,0,0,1,.166.07.231.231,0,0,1,.068.164v5.059a2.93,2.93,0,0,1-.41,1.522,3.164,3.164,0,0,1-1.088,1.089,2.873,2.873,0,0,1-1.512.409,2.932,2.932,0,0,1-1.521-.409,3.169,3.169,0,0,1-1.09-1.089,2.93,2.93,0,0,1-.41-1.522v-5.059a.25.25,0,0,1,.061-.164.249.249,0,0,1,.186-.07.243.243,0,0,1,.178.07.223.223,0,0,1,.068.164v5.059a2.5,2.5,0,0,0,.342,1.288,2.642,2.642,0,0,0,.912.925,2.494,2.494,0,0,0,1.275.34,2.456,2.456,0,0,0,1.277-.34,2.642,2.642,0,0,0,.912-.925,2.44,2.44,0,0,0,.352-1.288v-5.059a.259.259,0,0,1,.059-.164A.238.238,0,0,1,25884.227-7816.716Z" transform="translate(-25878.406 7816.741)"/><path class="b" d="M25878.219-7817.223a.284.284,0,0,0-.205.079h0a.287.287,0,0,0-.064.181v5.059a2.956,2.956,0,0,0,.414,1.535,3.183,3.183,0,0,0,1.1,1.1h0a2.957,2.957,0,0,0,1.535.414,2.9,2.9,0,0,0,1.523-.414,3.183,3.183,0,0,0,1.1-1.1,2.956,2.956,0,0,0,.414-1.535v-5.059a.253.253,0,0,0-.078-.182.226.226,0,0,0-.182-.079.273.273,0,0,0-.2.079h0a.287.287,0,0,0-.064.181v5.059a2.422,2.422,0,0,1-.346,1.275,2.642,2.642,0,0,1-.906.916,2.42,2.42,0,0,1-1.262.336,2.473,2.473,0,0,1-1.264-.336,2.636,2.636,0,0,1-.9-.916,2.488,2.488,0,0,1-.336-1.275v-5.059a.253.253,0,0,0-.078-.182.265.265,0,0,0-.193-.079Zm0,.051a.218.218,0,0,1,.16.063.2.2,0,0,1,.061.146v5.059a2.546,2.546,0,0,0,.344,1.3h0a2.678,2.678,0,0,0,.922.934h0a2.529,2.529,0,0,0,1.291.343,2.5,2.5,0,0,0,1.289-.343,2.689,2.689,0,0,0,.92-.934,2.488,2.488,0,0,0,.355-1.3v-5.059a.211.211,0,0,1,.053-.147.21.21,0,0,1,.156-.062.176.176,0,0,1,.145.062h0a.2.2,0,0,1,.063.146v5.059a2.917,2.917,0,0,1-.406,1.509,3.158,3.158,0,0,1-1.08,1.08,2.841,2.841,0,0,1-1.5.406,2.9,2.9,0,0,1-1.51-.407,3.133,3.133,0,0,1-1.078-1.079,2.9,2.9,0,0,1-.406-1.509v-5.059a.217.217,0,0,1,.051-.146.222.222,0,0,1,.168-.063Z" transform="translate(-25877.949 7817.223)"/></g><g transform="translate(29.862 2.038)"><path class="b" d="M26037.848-7818.221a.242.242,0,0,1,.105.164.243.243,0,0,1-.047.176.213.213,0,0,1-.152.093.328.328,0,0,1-.164-.047,4.316,4.316,0,0,0-1.078-.538,3.688,3.688,0,0,0-1.227-.2,3.532,3.532,0,0,0-1.406.281,3.414,3.414,0,0,0-1.137.772,3.673,3.673,0,0,0-.773,1.194,4.005,4.005,0,0,0-.281,1.522,4,4,0,0,0,.281,1.522,3.663,3.663,0,0,0,.773,1.194,3.568,3.568,0,0,0,1.137.784,3.665,3.665,0,0,0,1.406.27,3.688,3.688,0,0,0,1.227-.2,4.674,4.674,0,0,0,1.066-.526.247.247,0,0,1,.176-.047.214.214,0,0,1,.152.094.241.241,0,0,1,.047.175.212.212,0,0,1-.094.152,3.844,3.844,0,0,1-.715.387,4.523,4.523,0,0,1-.9.293,3.986,3.986,0,0,1-.957.117,3.973,3.973,0,0,1-1.582-.316,4.127,4.127,0,0,1-1.3-.878,4.336,4.336,0,0,1-.891-1.336,4.4,4.4,0,0,1-.316-1.686,4.325,4.325,0,0,1,.316-1.675,4.176,4.176,0,0,1,.891-1.335,4.034,4.034,0,0,1,1.3-.89,3.973,3.973,0,0,1,1.582-.316,4.428,4.428,0,0,1,1.367.211A4.26,4.26,0,0,1,26037.848-7818.221Zm-3.242,9.169a.43.43,0,0,1-.164-.048.48.48,0,0,1-.176-.116.213.213,0,0,1-.07-.152.222.222,0,0,1,.059-.164l1.051-1.288h.332l-.785,1.593A.263.263,0,0,1,26034.605-7809.052Z" transform="translate(-26031.166 7819.043)"/><path class="b" d="M26034.744-7819.521a3.987,3.987,0,0,0-1.59.319,4.044,4.044,0,0,0-1.309.9,4.209,4.209,0,0,0-.895,1.344,4.331,4.331,0,0,0-.318,1.684,4.425,4.425,0,0,0,.318,1.7,4.39,4.39,0,0,0,.895,1.343,4.145,4.145,0,0,0,1.309.884,3.983,3.983,0,0,0,1.4.28l-.857,1.048a.246.246,0,0,0-.066.182.242.242,0,0,0,.078.171.5.5,0,0,0,.182.121h0a.461.461,0,0,0,.174.048.3.3,0,0,0,.27-.191l.678-1.375a4.048,4.048,0,0,0,.7-.085h0a4.734,4.734,0,0,0,.906-.294,4.118,4.118,0,0,0,.721-.389.246.246,0,0,0,.1-.17.27.27,0,0,0-.051-.194.245.245,0,0,0-.17-.1.268.268,0,0,0-.193.051,4.652,4.652,0,0,1-1.059.524,3.707,3.707,0,0,1-1.221.2,3.635,3.635,0,0,1-1.4-.267h0a3.549,3.549,0,0,1-1.127-.779,3.614,3.614,0,0,1-.768-1.187,3.988,3.988,0,0,1-.277-1.513,3.99,3.99,0,0,1,.277-1.513,3.619,3.619,0,0,1,.768-1.186,3.414,3.414,0,0,1,1.127-.767,3.5,3.5,0,0,1,1.4-.279,3.715,3.715,0,0,1,1.223.2,4.356,4.356,0,0,1,1.07.535h0a.348.348,0,0,0,.176.049h0a.237.237,0,0,0,.168-.1h0a.284.284,0,0,0,.051-.193.271.271,0,0,0-.113-.181,4.287,4.287,0,0,0-1.2-.589h0a4.476,4.476,0,0,0-1.377-.212Zm0,.051a4.432,4.432,0,0,1,1.363.21,4.229,4.229,0,0,1,1.188.582.224.224,0,0,1,.1.146h0a.252.252,0,0,1-.045.158.182.182,0,0,1-.133.081.3.3,0,0,1-.148-.043h0a4.417,4.417,0,0,0-1.084-.542,3.759,3.759,0,0,0-1.236-.2,3.549,3.549,0,0,0-1.416.284,3.482,3.482,0,0,0-1.146.778,3.74,3.74,0,0,0-.775,1.2,4.014,4.014,0,0,0-.283,1.532,4.021,4.021,0,0,0,.283,1.533,3.733,3.733,0,0,0,.775,1.2,3.618,3.618,0,0,0,1.145.791h0a3.7,3.7,0,0,0,1.416.271,3.78,3.78,0,0,0,1.238-.2,4.767,4.767,0,0,0,1.072-.53h0a.209.209,0,0,1,.156-.042.18.18,0,0,1,.133.083.216.216,0,0,1,.045.157.2.2,0,0,1-.084.136,3.928,3.928,0,0,1-.711.383,4.656,4.656,0,0,1-.9.291h0a3.988,3.988,0,0,1-.658.081l.1-.2h-.381l-.168.2a3.923,3.923,0,0,1-1.414-.283,4.081,4.081,0,0,1-1.293-.874,4.289,4.289,0,0,1-.883-1.327,4.355,4.355,0,0,1-.314-1.676,4.265,4.265,0,0,1,.314-1.664h0a4.111,4.111,0,0,1,.883-1.326,3.986,3.986,0,0,1,1.293-.884,3.941,3.941,0,0,1,1.57-.314Zm.037,8.2h.273l-.076.155c-.078,0-.156.029-.234.029-.035,0-.062-.019-.1-.02Zm-.172.208c.049,0,.088.027.135.027.068,0,.139-.021.207-.025l-.662,1.347h0a.234.234,0,0,1-.223.16.437.437,0,0,1-.154-.044h0a.456.456,0,0,1-.166-.111.18.18,0,0,1-.062-.135.2.2,0,0,1,.051-.146h0Z" transform="translate(-26030.633 7819.521)"/></g><g transform="translate(37.619)"><path class="b" d="M26191.1-7852.745a4.785,4.785,0,0,1-.293,1.709,3.848,3.848,0,0,1-.809,1.335,3.635,3.635,0,0,1-1.24.866,3.964,3.964,0,0,1-1.57.3,3.961,3.961,0,0,1-1.568-.3,3.643,3.643,0,0,1-1.242-.866,4.023,4.023,0,0,1-.818-1.335,4.918,4.918,0,0,1-.283-1.709,4.919,4.919,0,0,1,.283-1.71,4.023,4.023,0,0,1,.818-1.335,3.659,3.659,0,0,1,1.242-.867,3.961,3.961,0,0,1,1.568-.3,3.964,3.964,0,0,1,1.57.3,3.651,3.651,0,0,1,1.24.867,3.848,3.848,0,0,1,.809,1.335A4.79,4.79,0,0,1,26191.1-7852.745Zm-.492,0a4.154,4.154,0,0,0-.445-1.968,3.223,3.223,0,0,0-1.205-1.312,3.307,3.307,0,0,0-1.77-.469,3.334,3.334,0,0,0-1.768.469,3.3,3.3,0,0,0-1.219,1.312,4.247,4.247,0,0,0-.434,1.968,4.246,4.246,0,0,0,.434,1.967,3.3,3.3,0,0,0,1.219,1.312,3.343,3.343,0,0,0,1.768.468,3.316,3.316,0,0,0,1.77-.468,3.229,3.229,0,0,0,1.205-1.312A4.153,4.153,0,0,0,26190.611-7852.745Zm-4.906-5.06a.145.145,0,0,1-.152-.105.585.585,0,0,1,.012-.3.885.885,0,0,1,.373-.551,1.054,1.054,0,0,1,.553-.164,1,1,0,0,1,.525.176q.281.164.551.328a.947.947,0,0,0,.469.163.333.333,0,0,0,.281-.14.823.823,0,0,0,.152-.387.282.282,0,0,1,.059-.152.206.206,0,0,1,.152-.059c.094,0,.148.039.162.117a.521.521,0,0,1,0,.281,1.088,1.088,0,0,1-.2.456.708.708,0,0,1-.318.234,1.015,1.015,0,0,1-.385.07,1.026,1.026,0,0,1-.5-.164c-.18-.108-.359-.214-.537-.315a.887.887,0,0,0-.459-.164.455.455,0,0,0-.314.129.835.835,0,0,0-.211.386.233.233,0,0,1-.094.129A.226.226,0,0,1,26185.705-7857.8Z" transform="translate(-26183.258 7859.025)"/><path class="b" d="M26188.285-7859.51a.229.229,0,0,0-.168.067h0a.284.284,0,0,0-.062.165.811.811,0,0,1-.148.375h0a.305.305,0,0,1-.262.131.934.934,0,0,1-.457-.161c-.176-.109-.359-.219-.547-.328h0a1.025,1.025,0,0,0-.539-.179,1.088,1.088,0,0,0-.566.168.908.908,0,0,0-.383.565h0a.6.6,0,0,0-.012.317.164.164,0,0,0,.066.092.177.177,0,0,0,.109.031.255.255,0,0,0,.133-.039h0a.245.245,0,0,0,.1-.143.821.821,0,0,1,.2-.375.428.428,0,0,1,.3-.123.855.855,0,0,1,.441.16h0c.18.1.359.206.539.315h0a1.048,1.048,0,0,0,.516.167,1.065,1.065,0,0,0,.4-.072.77.77,0,0,0,.324-.241,1.072,1.072,0,0,0,.2-.467h0a.527.527,0,0,0,0-.293.149.149,0,0,0-.062-.1.206.206,0,0,0-.125-.034Zm0,.051a.176.176,0,0,1,.1.024.108.108,0,0,1,.043.073h0v0a.506.506,0,0,1,0,.267,1.013,1.013,0,0,1-.2.446h0a.681.681,0,0,1-.3.226,1,1,0,0,1-.375.069,1,1,0,0,1-.492-.161c-.18-.109-.359-.215-.539-.316a.9.9,0,0,0-.469-.168.476.476,0,0,0-.332.136.842.842,0,0,0-.219.4.2.2,0,0,1-.086.115h0a.2.2,0,0,1-.1.03.138.138,0,0,1-.082-.021.135.135,0,0,1-.047-.067.627.627,0,0,1,.012-.291.851.851,0,0,1,.367-.534,1.012,1.012,0,0,1,.535-.16.974.974,0,0,1,.512.172q.281.164.551.328a.97.97,0,0,0,.484.167.364.364,0,0,0,.3-.15.833.833,0,0,0,.156-.4h0a.275.275,0,0,1,.051-.137A.183.183,0,0,1,26188.285-7859.458Zm-1.484,1.987a3.972,3.972,0,0,0-1.578.307,3.628,3.628,0,0,0-1.25.873,4.046,4.046,0,0,0-.828,1.343,5.02,5.02,0,0,0-.281,1.718,5.022,5.022,0,0,0,.281,1.719,4.053,4.053,0,0,0,.828,1.344,3.641,3.641,0,0,0,1.25.873,3.972,3.972,0,0,0,1.578.306,3.986,3.986,0,0,0,1.578-.306,3.641,3.641,0,0,0,1.25-.873,3.836,3.836,0,0,0,.813-1.344,4.841,4.841,0,0,0,.3-1.719,4.84,4.84,0,0,0-.3-1.718,3.834,3.834,0,0,0-.812-1.343,3.628,3.628,0,0,0-1.25-.873A3.986,3.986,0,0,0,26186.8-7857.472Zm0,.051a3.931,3.931,0,0,1,1.559.3,3.6,3.6,0,0,1,1.23.86,3.805,3.805,0,0,1,.8,1.326h0a4.734,4.734,0,0,1,.293,1.7,4.739,4.739,0,0,1-.293,1.7,3.8,3.8,0,0,1-.8,1.326,3.592,3.592,0,0,1-1.23.861,3.94,3.94,0,0,1-1.559.3,3.973,3.973,0,0,1-1.562-.3,3.592,3.592,0,0,1-1.23-.861,4.006,4.006,0,0,1-.812-1.326,4.916,4.916,0,0,1-.281-1.7,4.913,4.913,0,0,1,.281-1.7h0a4,4,0,0,1,.813-1.326,3.6,3.6,0,0,1,1.23-.86A3.964,3.964,0,0,1,26186.8-7857.42Zm0,.417a3.358,3.358,0,0,0-1.781.473,3.308,3.308,0,0,0-1.227,1.321h0a4.249,4.249,0,0,0-.437,1.979,4.251,4.251,0,0,0,.438,1.979h0a3.3,3.3,0,0,0,1.227,1.322,3.358,3.358,0,0,0,1.781.472,3.329,3.329,0,0,0,1.781-.472,3.221,3.221,0,0,0,1.215-1.322,4.2,4.2,0,0,0,.449-1.979,4.2,4.2,0,0,0-.449-1.979h0a3.231,3.231,0,0,0-1.215-1.321A3.329,3.329,0,0,0,26186.8-7857Zm0,.051a3.276,3.276,0,0,1,1.754.465,3.206,3.206,0,0,1,1.2,1.3h0a4.143,4.143,0,0,1,.441,1.955,4.147,4.147,0,0,1-.441,1.956,3.2,3.2,0,0,1-1.2,1.3,3.276,3.276,0,0,1-1.754.465,3.305,3.305,0,0,1-1.754-.465,3.285,3.285,0,0,1-1.211-1.3,4.241,4.241,0,0,1-.43-1.956,4.238,4.238,0,0,1,.43-1.955h0a3.287,3.287,0,0,1,1.211-1.3A3.305,3.305,0,0,1,26186.8-7856.953Z" transform="translate(-26182.863 7859.51)"/></g><g transform="translate(47.189 2.155)"><path class="b" d="M26371.42-7816.716h4.414a.225.225,0,0,1,.164.07.225.225,0,0,1,.07.164.236.236,0,0,1-.07.175.249.249,0,0,1-.164.059h-4.273l.115-.2v3.63l-.141-.163h3.771a.225.225,0,0,1,.164.07.225.225,0,0,1,.07.164.235.235,0,0,1-.07.175.249.249,0,0,1-.164.06h-3.746l.115-.129v3.712l-.047-.059h4.205a.225.225,0,0,1,.164.07.225.225,0,0,1,.07.164.236.236,0,0,1-.07.175.249.249,0,0,1-.164.059h-4.414a.221.221,0,0,1-.164-.07.219.219,0,0,1-.072-.163v-7.729a.22.22,0,0,1,.072-.164A.225.225,0,0,1,26371.42-7816.716Z" transform="translate(-26371.158 7816.742)"/><path class="b" d="M26370.936-7817.225a.258.258,0,0,0-.184.078.259.259,0,0,0-.076.182v7.729a.259.259,0,0,0,.076.182.257.257,0,0,0,.184.078h4.414a.273.273,0,0,0,.18-.064h0a.262.262,0,0,0,.078-.194.252.252,0,0,0-.078-.182.244.244,0,0,0-.18-.079h-4.135v-3.473h3.605a.279.279,0,0,0,.182-.065h0a.269.269,0,0,0,.078-.194.261.261,0,0,0-.078-.182.252.252,0,0,0-.182-.077h-3.605v-3.216h4.133a.276.276,0,0,0,.18-.065h0a.262.262,0,0,0,.078-.194.253.253,0,0,0-.078-.182.254.254,0,0,0-.182-.079Zm0,.051h4.414a.2.2,0,0,1,.146.063.2.2,0,0,1,.063.146.209.209,0,0,1-.061.156.224.224,0,0,1-.148.053h-4.131v-.267l-.187.318h.137v3.216H26371l.223.258v-.208h3.6a.2.2,0,0,1,.146.063.206.206,0,0,1,.063.146.217.217,0,0,1-.062.158.222.222,0,0,1-.146.051h-3.6v-.169l-.2.221h.15v3.473h-.076l.127.157v-.105h4.131a.2.2,0,0,1,.146.063.2.2,0,0,1,.063.146.212.212,0,0,1-.061.157.226.226,0,0,1-.148.052h-4.414a.2.2,0,0,1-.146-.063.2.2,0,0,1-.062-.146v-7.729a.206.206,0,0,1,.063-.146A.2.2,0,0,1,26370.936-7817.174Zm.232.336v.081h-.049Zm-.062,3.4h.063v.071Zm.063.38v.038h-.035Z" transform="translate(-26370.676 7817.226)"/></g><g transform="translate(53.059 2.038)"><path class="b" d="M26489.344-7810.584a3.483,3.483,0,0,1-1.572-.3,4.662,4.662,0,0,1-1.262-.925.31.31,0,0,1-.049-.058.265.265,0,0,1-.023-.118.246.246,0,0,1,.082-.175.235.235,0,0,1,.178-.094.263.263,0,0,1,.2.105,3.155,3.155,0,0,0,1.09.82,3.2,3.2,0,0,0,1.311.281,2.853,2.853,0,0,0,1.066-.187,1.766,1.766,0,0,0,.736-.55,1.377,1.377,0,0,0,.271-.843,1.465,1.465,0,0,0-.328-.96,2.462,2.462,0,0,0-.82-.6q-.492-.234-1.043-.433-.434-.164-.855-.34a3.791,3.791,0,0,1-.76-.421,1.909,1.909,0,0,1-.539-.632,2.053,2.053,0,0,1-.2-.949,1.814,1.814,0,0,1,.3-1.03,2.132,2.132,0,0,1,.889-.738,3.171,3.171,0,0,1,1.383-.281,3.56,3.56,0,0,1,1.3.246,2.143,2.143,0,0,1,.994.714.492.492,0,0,1,.117.247.23.23,0,0,1-.092.164.262.262,0,0,1-.189.082.192.192,0,0,1-.152-.07,2,2,0,0,0-.514-.48,2.118,2.118,0,0,0-.668-.316,2.657,2.657,0,0,0-.8-.118,2.8,2.8,0,0,0-1.043.188,1.779,1.779,0,0,0-.748.539,1.268,1.268,0,0,0-.281.843,1.31,1.31,0,0,0,.3.89,2.692,2.692,0,0,0,.795.574c.322.148.648.285.984.41q.445.152.879.34a3.266,3.266,0,0,1,.795.445,1.957,1.957,0,0,1,.576.679,2.24,2.24,0,0,1,.209,1.03,1.725,1.725,0,0,1-.314,1,2.188,2.188,0,0,1-.867.737A3.087,3.087,0,0,1,26489.344-7810.584Z" transform="translate(-26486.408 7819.041)"/><path class="b" d="M26488.854-7819.521a3.2,3.2,0,0,0-1.393.284,2.183,2.183,0,0,0-.9.747,1.847,1.847,0,0,0-.309,1.044,2.085,2.085,0,0,0,.2.961h0a1.963,1.963,0,0,0,.547.641,3.757,3.757,0,0,0,.768.424c.281.117.564.231.855.34h0c.365.133.713.276,1.039.432a2.419,2.419,0,0,1,.811.591,1.417,1.417,0,0,1,.32.945,1.361,1.361,0,0,1-.262.827,1.771,1.771,0,0,1-.729.542h0a2.813,2.813,0,0,1-1.057.186,3.163,3.163,0,0,1-1.3-.278h0a3.145,3.145,0,0,1-1.08-.813.292.292,0,0,0-.219-.114.265.265,0,0,0-.2.1.273.273,0,0,0-.086.192.266.266,0,0,0,.025.129v0h0a.347.347,0,0,0,.049.063,4.764,4.764,0,0,0,1.271.93,3.515,3.515,0,0,0,1.58.307h0a3.093,3.093,0,0,0,1.357-.3,2.2,2.2,0,0,0,.875-.746,1.717,1.717,0,0,0,.322-1.01,2.243,2.243,0,0,0-.215-1.042,1.952,1.952,0,0,0-.58-.688,3.3,3.3,0,0,0-.8-.448h0c-.287-.125-.582-.239-.877-.341h0c-.336-.125-.662-.261-.982-.409h0a2.651,2.651,0,0,1-.787-.569,1.28,1.28,0,0,1-.3-.873,1.26,1.26,0,0,1,.275-.827,1.76,1.76,0,0,1,.74-.531,2.752,2.752,0,0,1,1.031-.186,2.627,2.627,0,0,1,.789.116h0a2.112,2.112,0,0,1,.66.313h0a1.978,1.978,0,0,1,.508.474h0a.217.217,0,0,0,.172.08.289.289,0,0,0,.205-.088h0a.25.25,0,0,0,.1-.182.511.511,0,0,0-.123-.261,2.16,2.16,0,0,0-1.006-.723,3.556,3.556,0,0,0-1.309-.248Zm0,.051a3.519,3.519,0,0,1,1.291.244,2.136,2.136,0,0,1,.986.706.535.535,0,0,1,.111.231.207.207,0,0,1-.086.145h0a.229.229,0,0,1-.17.075.156.156,0,0,1-.131-.06h0a2.042,2.042,0,0,0-.52-.484h0a2.144,2.144,0,0,0-.674-.318h0a2.678,2.678,0,0,0-.8-.119,2.8,2.8,0,0,0-1.049.19,1.8,1.8,0,0,0-.76.546,1.3,1.3,0,0,0-.287.859,1.327,1.327,0,0,0,.311.906h0a2.643,2.643,0,0,0,.8.579h0c.318.148.648.286.984.411q.445.152.877.339h0a3.246,3.246,0,0,1,.791.441,1.893,1.893,0,0,1,.564.67,2.186,2.186,0,0,1,.209,1.019,1.677,1.677,0,0,1-.311.981h0a2.159,2.159,0,0,1-.857.729,3.058,3.058,0,0,1-1.336.29h0a3.447,3.447,0,0,1-1.557-.3,4.651,4.651,0,0,1-1.258-.92.294.294,0,0,1-.041-.051h0a.232.232,0,0,1-.021-.105.219.219,0,0,1,.074-.157h0a.205.205,0,0,1,.156-.084.241.241,0,0,1,.18.1,3.164,3.164,0,0,0,1.1.826h0a3.222,3.222,0,0,0,1.322.282,2.89,2.89,0,0,0,1.076-.189h0a1.821,1.821,0,0,0,.748-.558h0a1.407,1.407,0,0,0,.271-.858,1.475,1.475,0,0,0-.334-.977,2.415,2.415,0,0,0-.826-.6q-.5-.235-1.045-.434-.434-.164-.854-.34a3.654,3.654,0,0,1-.754-.419,1.868,1.868,0,0,1-.533-.623h0a2.018,2.018,0,0,1-.2-.936,1.8,1.8,0,0,1,.3-1.016,2.127,2.127,0,0,1,.879-.729,3.147,3.147,0,0,1,1.371-.278Z" transform="translate(-26485.867 7819.521)"/></g><g transform="translate(63.426 2.155)"><path class="b" d="M26693.16-7816.716a3.217,3.217,0,0,1,1.523.34,2.838,2.838,0,0,1,1.053.913,3.871,3.871,0,0,1,.619,1.312,5.774,5.774,0,0,1,.2,1.534,5.615,5.615,0,0,1-.365,2.061,3.242,3.242,0,0,1-1.1,1.487,3.178,3.178,0,0,1-1.932.55h-3.045a.221.221,0,0,1-.164-.07.232.232,0,0,1-.07-.163v-7.729a.233.233,0,0,1,.07-.164.225.225,0,0,1,.164-.07Zm-.117,7.729a2.863,2.863,0,0,0,1.732-.48,2.8,2.8,0,0,0,.973-1.312,5.131,5.131,0,0,0,.316-1.838,5.264,5.264,0,0,0-.176-1.37,3.371,3.371,0,0,0-.525-1.159,2.571,2.571,0,0,0-.937-.809,3.012,3.012,0,0,0-1.383-.293h-2.74l.07-.094v7.46l-.07-.105Z" transform="translate(-26689.852 7816.741)"/><path class="b" d="M26689.58-7817.223a.25.25,0,0,0-.182.078.253.253,0,0,0-.078.182v7.729a.253.253,0,0,0,.078.182.249.249,0,0,0,.182.077h3.043a3.216,3.216,0,0,0,1.949-.554h0a3.3,3.3,0,0,0,1.109-1.5,5.709,5.709,0,0,0,.363-2.07,5.911,5.911,0,0,0-.2-1.541,3.918,3.918,0,0,0-.625-1.319,2.869,2.869,0,0,0-1.062-.921,3.249,3.249,0,0,0-1.535-.343Zm0,.051h3.043a3.209,3.209,0,0,1,1.512.337h0a2.812,2.812,0,0,1,1.043.9h0a3.936,3.936,0,0,1,.617,1.3,5.807,5.807,0,0,1,.2,1.527,5.643,5.643,0,0,1-.359,2.052,3.231,3.231,0,0,1-1.094,1.476,3.156,3.156,0,0,1-1.918.545h-3.043a.2.2,0,0,1-.146-.062.206.206,0,0,1-.062-.146v-7.729a.2.2,0,0,1,.063-.146.2.2,0,0,1,.146-.063Zm.283.273-.148.195h.1v7.209h-.092l.145.215v-.164h2.643a2.887,2.887,0,0,0,1.748-.485,2.826,2.826,0,0,0,.982-1.323,5.181,5.181,0,0,0,.316-1.847,5.239,5.239,0,0,0-.178-1.377,3.353,3.353,0,0,0-.529-1.167,2.565,2.565,0,0,0-.947-.816,3.023,3.023,0,0,0-1.393-.3h-2.643Zm0,.195h2.643a2.981,2.981,0,0,1,1.371.291,2.517,2.517,0,0,1,.928.8,3.335,3.335,0,0,1,.523,1.151,5.3,5.3,0,0,1,.174,1.363,5.082,5.082,0,0,1-.314,1.83,2.763,2.763,0,0,1-.963,1.3,2.841,2.841,0,0,1-1.719.475h-2.643Z" transform="translate(-26689.32 7817.223)"/></g><g transform="translate(71.866 2.155)"><path class="b" d="M26855.988-7808.77a.308.308,0,0,1-.082.176.231.231,0,0,1-.164.07.253.253,0,0,1-.187-.07.265.265,0,0,1-.059-.176v-7.705a.238.238,0,0,1,.07-.176.235.235,0,0,1,.176-.07.231.231,0,0,1,.174.07.233.233,0,0,1,.072.176Z" transform="translate(-26855.467 7816.747)"/><path class="b" d="M26855.213-7817.223a.265.265,0,0,0-.193.078.269.269,0,0,0-.078.194v7.7a.294.294,0,0,0,.064.192h0a.283.283,0,0,0,.205.077.246.246,0,0,0,.182-.077.313.313,0,0,0,.092-.191v0h0v-7.705a.268.268,0,0,0-.078-.193.272.272,0,0,0-.2-.078Zm0,.051a.209.209,0,0,1,.156.063.209.209,0,0,1,.064.158v7.7a.251.251,0,0,1-.076.16.19.19,0,0,1-.145.063.228.228,0,0,1-.168-.062.246.246,0,0,1-.053-.159v-7.705a.214.214,0,0,1,.063-.157A.213.213,0,0,1,26855.213-7817.172Z" transform="translate(-26854.941 7817.223)"/></g><g transform="translate(74.119 2.038)"><path class="b" d="M26903.834-7810.584a4.554,4.554,0,0,1-1.686-.3,4.179,4.179,0,0,1-1.334-.878,4.147,4.147,0,0,1-.879-1.346,4.563,4.563,0,0,1-.3-1.687,4.555,4.555,0,0,1,.3-1.686,4.014,4.014,0,0,1,.879-1.335,3.926,3.926,0,0,1,1.334-.878,4.4,4.4,0,0,1,1.686-.316,4.671,4.671,0,0,1,1.242.164,3.389,3.389,0,0,1,1.064.468.19.19,0,0,1,.082.094.233.233,0,0,1,.023.105.2.2,0,0,1-.08.175.261.261,0,0,1-.141.059.243.243,0,0,1-.082-.012.307.307,0,0,0-.072-.035,4.437,4.437,0,0,0-.947-.4,3.827,3.827,0,0,0-1.09-.152,3.756,3.756,0,0,0-1.93.492,3.511,3.511,0,0,0-1.314,1.323,3.91,3.91,0,0,0-.467,1.933,3.975,3.975,0,0,0,.467,1.944,3.508,3.508,0,0,0,1.314,1.323,3.828,3.828,0,0,0,1.93.48,3.844,3.844,0,0,0,1.148-.176,3.953,3.953,0,0,0,1.006-.48l-.045.21v-2.927l.164.152h-2.273a.225.225,0,0,1-.164-.07.233.233,0,0,1-.07-.164.206.206,0,0,1,.07-.164.223.223,0,0,1,.164-.071h2.344a.206.206,0,0,1,.164.071.229.229,0,0,1,.068.164v2.939a.255.255,0,0,1-.023.106.258.258,0,0,1-.082.1,4.556,4.556,0,0,1-1.156.562A4.144,4.144,0,0,1,26903.834-7810.584Z" transform="translate(-26899.607 7819.041)"/><path class="b" d="M26903.377-7819.521a4.427,4.427,0,0,0-1.7.318,3.957,3.957,0,0,0-1.344.884,4.023,4.023,0,0,0-.883,1.343h0a4.571,4.571,0,0,0-.307,1.7,4.568,4.568,0,0,0,.307,1.7h0a4.145,4.145,0,0,0,.883,1.354h0a4.2,4.2,0,0,0,1.344.883,4.586,4.586,0,0,0,1.7.306,4.123,4.123,0,0,0,1.318-.211,4.6,4.6,0,0,0,1.166-.565h0a.294.294,0,0,0,.09-.116.289.289,0,0,0,.025-.114v-2.94a.256.256,0,0,0-.076-.181.232.232,0,0,0-.184-.079h-2.342a.248.248,0,0,0-.18.077.228.228,0,0,0-.08.183.253.253,0,0,0,.078.182.25.25,0,0,0,.182.078h2.082v2.545a4.005,4.005,0,0,1-.941.45,3.816,3.816,0,0,1-1.141.174,3.815,3.815,0,0,1-1.92-.477,3.483,3.483,0,0,1-1.3-1.314,3.944,3.944,0,0,1-.467-1.931,3.88,3.88,0,0,1,.467-1.92,3.485,3.485,0,0,1,1.3-1.313,3.738,3.738,0,0,1,1.92-.488,3.807,3.807,0,0,1,1.082.151,4.407,4.407,0,0,1,.941.4h.006a.26.26,0,0,1,.064.031l0,0h.006a.276.276,0,0,0,.09.013.277.277,0,0,0,.156-.063.232.232,0,0,0,.094-.2.313.313,0,0,0-.025-.115h0a.228.228,0,0,0-.094-.1,3.377,3.377,0,0,0-1.072-.472,4.7,4.7,0,0,0-1.248-.165Zm0,.051a4.663,4.663,0,0,1,1.234.163h0a3.365,3.365,0,0,1,1.057.465h0a.161.161,0,0,1,.07.081h0v0a.206.206,0,0,1,.021.094.173.173,0,0,1-.072.155.237.237,0,0,1-.125.054.225.225,0,0,1-.072-.011h0a.421.421,0,0,0-.066-.033h-.006a4.454,4.454,0,0,0-.947-.4,3.875,3.875,0,0,0-1.1-.154,3.78,3.78,0,0,0-1.943.5,3.535,3.535,0,0,0-1.322,1.333h0a3.96,3.96,0,0,0-.471,1.944,4.028,4.028,0,0,0,.471,1.957h0a3.539,3.539,0,0,0,1.322,1.333,3.857,3.857,0,0,0,1.943.483,3.858,3.858,0,0,0,1.156-.176h0a4.045,4.045,0,0,0,.926-.442v.148l.051,0v0l.059-.268-.053.036s0,0-.006,0v-2.521h.2l-.256-.236v.185h-2.08a.2.2,0,0,1-.146-.063.2.2,0,0,1-.064-.146.175.175,0,0,1,.063-.144h0a.2.2,0,0,1,.145-.062h2.342a.177.177,0,0,1,.146.061h0a.2.2,0,0,1,.063.146v2.94a.244.244,0,0,1-.021.1.222.222,0,0,1-.074.093,4.511,4.511,0,0,1-1.15.559,4.1,4.1,0,0,1-1.3.21,4.521,4.521,0,0,1-1.676-.3h0a4.146,4.146,0,0,1-1.326-.873,4.125,4.125,0,0,1-.873-1.337h0a4.542,4.542,0,0,1-.3-1.676,4.54,4.54,0,0,1,.3-1.676,3.962,3.962,0,0,1,.873-1.327,3.9,3.9,0,0,1,1.326-.873,4.389,4.389,0,0,1,1.676-.314Zm2.133,4.624.074.067h-.074Z" transform="translate(-26899.148 7819.521)"/></g><g transform="translate(82.825 2.155)"><path class="b" d="M27070.949-7808.77a.283.283,0,0,1-.08.176.225.225,0,0,1-.164.07.253.253,0,0,1-.187-.07.255.255,0,0,1-.059-.176v-7.705a.238.238,0,0,1,.07-.176.238.238,0,0,1,.176-.07.245.245,0,0,1,.176.07.237.237,0,0,1,.068.176Z" transform="translate(-27070.436 7816.747)"/><path class="b" d="M27070.266-7817.223a.265.265,0,0,0-.193.078.267.267,0,0,0-.076.194v7.7a.293.293,0,0,0,.063.192h0a.282.282,0,0,0,.207.077.248.248,0,0,0,.18-.077.31.31,0,0,0,.09-.191v0h0v-7.705a.268.268,0,0,0-.078-.193A.263.263,0,0,0,27070.266-7817.223Zm0,.051a.206.206,0,0,1,.156.063.2.2,0,0,1,.064.158v7.7a.249.249,0,0,1-.074.16.2.2,0,0,1-.146.063.225.225,0,0,1-.168-.062.246.246,0,0,1-.053-.159v-7.705a.207.207,0,0,1,.063-.157A.21.21,0,0,1,27070.266-7817.172Z" transform="translate(-27069.996 7817.223)"/></g><g transform="translate(84.897 2.155)"><path class="b" d="M27114.313-7808.52a.238.238,0,0,1-.176-.07.248.248,0,0,1-.059-.163v-7.682h.469v7.682a.224.224,0,0,1-.07.163A.215.215,0,0,1,27114.313-7808.52Zm-2.846-7.751a.253.253,0,0,1-.164-.06.22.22,0,0,1-.068-.164.187.187,0,0,1,.068-.151.228.228,0,0,1,.164-.07h5.691a.225.225,0,0,1,.164.07.188.188,0,0,1,.07.151.2.2,0,0,1-.07.164.249.249,0,0,1-.164.06Z" transform="translate(-27111.205 7816.741)"/><path class="b" d="M27110.926-7817.223a.25.25,0,0,0-.18.078.219.219,0,0,0-.078.171.253.253,0,0,0,.078.182h0a.267.267,0,0,0,.18.065h2.586v7.493a.263.263,0,0,0,.064.18h0a.264.264,0,0,0,.193.078.253.253,0,0,0,.182-.078.253.253,0,0,0,.078-.182v-7.493h2.586a.28.28,0,0,0,.182-.065.232.232,0,0,0,.078-.183.22.22,0,0,0-.078-.171.255.255,0,0,0-.182-.078Zm0,.051h5.691a.2.2,0,0,1,.146.063h0a.165.165,0,0,1,.061.134.173.173,0,0,1-.061.144.222.222,0,0,1-.148.052h-2.584v-.164h-.52v.164h-2.586a.228.228,0,0,1-.148-.052.2.2,0,0,1-.061-.144.165.165,0,0,1,.061-.134h0a.2.2,0,0,1,.146-.063Zm2.637.281h.418v.112h-.418Zm0,.164h.418v7.493a.2.2,0,0,1-.062.146.2.2,0,0,1-.146.063.213.213,0,0,1-.156-.062.231.231,0,0,1-.053-.146Z" transform="translate(-27110.668 7817.223)"/></g><g transform="translate(91.277 2.131)"><path class="b" d="M27239.729-7816.56l-2.965,7.447a.223.223,0,0,1-.082.117.244.244,0,0,1-.127.035.241.241,0,0,1-.176-.059.231.231,0,0,1-.07-.141.2.2,0,0,1,.012-.117l3.148-7.752a.205.205,0,0,1,.082-.117.276.276,0,0,1,.143-.035.228.228,0,0,1,.15.047.17.17,0,0,1,.082.1l3.15,7.752a.3.3,0,0,1,.012.094.2.2,0,0,1-.07.164.268.268,0,0,1-.176.059.342.342,0,0,1-.152-.035.278.278,0,0,1-.082-.117l-3.057-7.542Zm-2.168,5.058.166-.468h3.793l.115.468Z" transform="translate(-27236.283 7817.206)"/><path class="b" d="M27239.289-7817.685a.3.3,0,0,0-.152.038h0a.221.221,0,0,0-.094.131l-3.15,7.752h0a.236.236,0,0,0-.014.129.274.274,0,0,0,.078.155.262.262,0,0,0,.193.066.272.272,0,0,0,.141-.039h0a.274.274,0,0,0,.09-.128h0l.941-2.372h3.893l.961,2.372a.275.275,0,0,0,.09.129l0,0h0a.37.37,0,0,0,.166.038.292.292,0,0,0,.191-.064.236.236,0,0,0,.078-.184.375.375,0,0,0-.012-.1h0l-3.15-7.751h0a.22.22,0,0,0-.092-.118.265.265,0,0,0-.166-.051Zm0,.051a.206.206,0,0,1,.135.042h0a.161.161,0,0,1,.07.092l3.152,7.752a.306.306,0,0,1,.01.085.179.179,0,0,1-.061.145.243.243,0,0,1-.16.053.294.294,0,0,1-.137-.031.191.191,0,0,1-.072-.1h0l-.977-2.409-.115-.465h-.074l-1.779-4.393.074-.184-.021-.011-.238-.127.131.321-1.748,4.393h-.176l-.184.52h.152l-.936,2.354h0a.232.232,0,0,1-.074.1.219.219,0,0,1-.113.03.211.211,0,0,1-.158-.051.219.219,0,0,1-.062-.125v0h0a.2.2,0,0,1,.012-.1h0l3.148-7.751a.2.2,0,0,1,.072-.1h0a.235.235,0,0,1,.127-.032Zm-.092.557.094.05-.035.092Zm.059.278,1.752,4.324h-3.473Zm-1.916,4.375h.119l-.166.418h-.1Zm.174,0h3.514l.172.418h-3.852Zm3.57,0h.012l.018.077Z" transform="translate(-27235.875 7817.685)"/></g><g transform="translate(99.634 2.155)"><path class="b" d="M27400.809-7808.77a.294.294,0,0,1-.08.176.232.232,0,0,1-.166.07.249.249,0,0,1-.186-.07.267.267,0,0,1-.061-.176v-7.705a.233.233,0,0,1,.072-.176.231.231,0,0,1,.174-.07.243.243,0,0,1,.178.07.237.237,0,0,1,.068.176Z" transform="translate(-27400.293 7816.747)"/><path class="b" d="M27400.131-7817.223a.262.262,0,0,0-.193.078.269.269,0,0,0-.078.194v7.7a.294.294,0,0,0,.064.192h0a.277.277,0,0,0,.205.077.252.252,0,0,0,.182-.077.321.321,0,0,0,.09-.191v0h0v-7.705a.261.261,0,0,0-.078-.193.265.265,0,0,0-.193-.078Zm0,.051a.213.213,0,0,1,.158.063.213.213,0,0,1,.061.158v7.7a.247.247,0,0,1-.072.16.2.2,0,0,1-.146.063.228.228,0,0,1-.168-.062.236.236,0,0,1-.053-.159v-7.705a.207.207,0,0,1,.063-.157A.21.21,0,0,1,27400.131-7817.172Z" transform="translate(-27399.859 7817.223)"/></g><g transform="translate(101.705 2.038)"><path class="b" d="M27444-7810.584a3.457,3.457,0,0,1-1.566-.3,4.647,4.647,0,0,1-1.266-.925.407.407,0,0,1-.049-.058.266.266,0,0,1-.021-.118.246.246,0,0,1,.082-.175.234.234,0,0,1,.174-.094.263.263,0,0,1,.2.105,3.174,3.174,0,0,0,1.09.82,3.2,3.2,0,0,0,1.311.281,2.853,2.853,0,0,0,1.066-.187,1.785,1.785,0,0,0,.738-.55,1.388,1.388,0,0,0,.27-.843,1.476,1.476,0,0,0-.328-.96,2.423,2.423,0,0,0-.82-.6q-.492-.234-1.043-.433-.434-.164-.854-.34a3.7,3.7,0,0,1-.762-.421,1.932,1.932,0,0,1-.539-.632,2.078,2.078,0,0,1-.2-.949,1.814,1.814,0,0,1,.3-1.03,2.15,2.15,0,0,1,.891-.738,3.165,3.165,0,0,1,1.383-.281,3.549,3.549,0,0,1,1.3.246,2.159,2.159,0,0,1,1,.714.51.51,0,0,1,.117.247.233.233,0,0,1-.094.164.261.261,0,0,1-.187.082.186.186,0,0,1-.152-.07,2.009,2.009,0,0,0-.516-.48,2.1,2.1,0,0,0-.668-.316,2.653,2.653,0,0,0-.795-.118,2.806,2.806,0,0,0-1.045.188,1.773,1.773,0,0,0-.746.539,1.27,1.27,0,0,0-.283.843,1.31,1.31,0,0,0,.3.89,2.651,2.651,0,0,0,.8.574q.48.222.984.41c.3.1.588.215.877.34a3.23,3.23,0,0,1,.795.445,1.911,1.911,0,0,1,.574.679,2.214,2.214,0,0,1,.213,1.03,1.727,1.727,0,0,1-.316,1,2.188,2.188,0,0,1-.867.737A3.09,3.09,0,0,1,27444-7810.584Z" transform="translate(-27441.072 7819.041)"/><path class="b" d="M27443.5-7819.521a3.2,3.2,0,0,0-1.395.284,2.165,2.165,0,0,0-.9.747,1.848,1.848,0,0,0-.311,1.044,2.06,2.06,0,0,0,.2.961,1.957,1.957,0,0,0,.545.641h0a3.757,3.757,0,0,0,.768.424c.279.117.566.231.855.34h0q.548.2,1.037.432h0a2.362,2.362,0,0,1,.811.591,1.439,1.439,0,0,1,.324.945,1.364,1.364,0,0,1-.266.827,1.764,1.764,0,0,1-.727.542h0a2.82,2.82,0,0,1-1.057.186,3.172,3.172,0,0,1-1.3-.278,3.145,3.145,0,0,1-1.08-.813h0a.292.292,0,0,0-.217-.114.262.262,0,0,0-.2.1.275.275,0,0,0-.088.192.291.291,0,0,0,.025.129v0h0a.7.7,0,0,0,.049.063,4.711,4.711,0,0,0,1.273.93,3.5,3.5,0,0,0,1.578.307h0a3.1,3.1,0,0,0,1.357-.3,2.22,2.22,0,0,0,.877-.745,1.733,1.733,0,0,0,.322-1.011,2.267,2.267,0,0,0-.215-1.042,1.972,1.972,0,0,0-.58-.688,3.319,3.319,0,0,0-.8-.448h0q-.437-.187-.881-.34h0q-.5-.187-.98-.409h0a2.651,2.651,0,0,1-.789-.569,1.279,1.279,0,0,1-.3-.873,1.25,1.25,0,0,1,.275-.827h0a1.766,1.766,0,0,1,.738-.531,2.756,2.756,0,0,1,1.033-.186,2.645,2.645,0,0,1,.789.116h0a2.1,2.1,0,0,1,.658.313h0a2.01,2.01,0,0,1,.51.474h0a.214.214,0,0,0,.172.079.287.287,0,0,0,.2-.088h0a.251.251,0,0,0,.1-.182.5.5,0,0,0-.123-.261,2.174,2.174,0,0,0-1-.723,3.589,3.589,0,0,0-1.311-.248Zm0,.051a3.517,3.517,0,0,1,1.289.244,2.11,2.11,0,0,1,.984.706.523.523,0,0,1,.113.231.2.2,0,0,1-.086.145h0a.223.223,0,0,1-.17.075.161.161,0,0,1-.131-.06h0a2.042,2.042,0,0,0-.52-.484h0a2.124,2.124,0,0,0-.674-.318h0a2.674,2.674,0,0,0-.8-.119,2.808,2.808,0,0,0-1.051.19,1.8,1.8,0,0,0-.76.546,1.3,1.3,0,0,0-.289.859,1.337,1.337,0,0,0,.311.906h0a2.717,2.717,0,0,0,.8.579h0q.48.223.984.411h0q.442.152.877.339h0a3.2,3.2,0,0,1,.789.441,1.924,1.924,0,0,1,.568.67,2.237,2.237,0,0,1,.207,1.019,1.679,1.679,0,0,1-.312.981h0a2.145,2.145,0,0,1-.857.729,3.042,3.042,0,0,1-1.334.29,3.441,3.441,0,0,1-1.557-.3,4.658,4.658,0,0,1-1.26-.92.42.42,0,0,1-.043-.053h0a.261.261,0,0,1-.018-.1.224.224,0,0,1,.072-.157h0a.218.218,0,0,1,.158-.084.241.241,0,0,1,.18.1,3.153,3.153,0,0,0,1.1.826h0a3.206,3.206,0,0,0,1.32.282,2.872,2.872,0,0,0,1.074-.189h0a1.808,1.808,0,0,0,.748-.558h0a1.4,1.4,0,0,0,.273-.858,1.475,1.475,0,0,0-.334-.977,2.436,2.436,0,0,0-.828-.6c-.328-.157-.678-.3-1.045-.434-.287-.109-.57-.223-.854-.34a3.706,3.706,0,0,1-.754-.419,1.89,1.89,0,0,1-.533-.623h0a2.044,2.044,0,0,1-.193-.936,1.781,1.781,0,0,1,.3-1.016,2.121,2.121,0,0,1,.881-.729,3.132,3.132,0,0,1,1.369-.278Z" transform="translate(-27440.512 7819.521)"/></g></g></g></svg>